<?xml version="1.0" encoding="UTF-8"?> <svg xmlns="http://www.w3.org/2000/svg" id="Capa_1" data-name="Capa 1" viewBox="0 0 135 119.04"><defs><style>.cls-1{fill:#e6eaed}</style></defs><path class="cls-1" d="M54.23 27.12A6.49 6.49 0 0057.5 18.4L52.17 7.19A6.51 6.51 0 0043.67 4 74.86 74.86 0 0020.15 19.28 56.86 56.86 0 004.36 44.22C1.52 53.58 0 66.32 0 82.55V116a6.55 6.55 0 006.53 6.54h42.8A6.56 6.56 0 0055.87 116V73.18a6.55 6.55 0 00-6.54-6.53H28.86c.22-11 2.83-19.82 7.62-26.47C40.4 34.85 46.28 30.49 54.23 27.12zM131.12 27.12a6.5 6.5 0 003.27-8.72L129.05 7.3a6.5 6.5 0 00-8.49-3.16A78.93 78.93 0 0097.14 19.28a58.08 58.08 0 00-15.9 25Q77 58 77 82.55V116a6.55 6.55 0 006.53 6.53h42.8a6.55 6.55 0 006.53-6.53V73.19a6.55 6.55 0 00-6.53-6.54H105.75c.21-11 2.83-19.82 7.62-26.46C117.29 34.85 123.17 30.49 131.12 27.12z" transform="translate(0 -3.48)"></path></svg> 