<?xml version="1.0" encoding="UTF-8"?> <svg xmlns="http://www.w3.org/2000/svg" id="_Layer_" data-name="&lt;Layer&gt;" viewBox="0 0 1550.92 1333.8"><defs><style>.cls-1{fill:#e2474b}.cls-2{fill:#fff}.cls-3{fill:#0e2549}.cls-4{fill:#a1c5e2}.cls-5{fill:#ebf4fe}</style></defs><path class="cls-1" d="M771.51 1221c4.48 42.46 2.67 112.82 2.67 112.82h-30.06v-52.21l-15 52.21h-90.97v-32.19l52.6-25.43s77.85-82.85 80.76-55.2z"></path><path class="cls-2" d="M666.16 920l45.59 298.08s-24.34 59.71-22.53 61.78c16 18.37 77.1-59.78 77.1-59.78V941.49z"></path><path class="cls-3" d="M695.65 1284.17a9.61 9.61 0 01-7.58-3.31c-.89-1-1.73-2 10.32-33.21 5.27-13.68 10.8-27.3 11.8-29.76l-45.87-299.84 103.49 22.21v280.34l-.32.41c-2 2.56-49.12 62.54-71.51 63.16zm-5-5a6.79 6.79 0 005.27 2c20.07-.54 64.63-56.21 68.88-61.57V942.77L668 922l45.32 296.31-.16.39c-8.62 21.12-22.16 55.68-22.51 60.46z"></path><path class="cls-3" d="M777 1333.8l-2.87-82.8c-30.86 15.28-45.17 37.08-51.42 50.48h-89.26v32.28h95.64l4.12-14.31 10.79-36.32v50.67z"></path><path class="cls-1" d="M480 1221.66c4.48 42.46 2.67 112.82 2.67 112.82h-30.09v-52.21l-15 52.21h-90.97v-32.2l52.59-25.42s77.86-82.86 80.8-55.2z"></path><path class="cls-2" d="M538.36 931.51l-118.15 287.25s-24.34 59.71-22.54 61.77c16.05 18.37 77.11-59.78 77.11-59.78l167.07-286.17z"></path><path class="cls-3" d="M404.1 1284.85a9.61 9.61 0 01-7.57-3.31c-.89-1-1.73-2 10.32-33.22 5.79-15 11.89-30 11.95-30.14L537.35 930l107.1 3.17L476 1221.69c-2 2.55-49.12 62.54-71.51 63.16zm-5-5a6.79 6.79 0 005.27 2c20.63-.56 67.14-59.37 69.14-61.91L639.24 936l-99.87-3-117.75 286.33c-8.62 21.17-22.13 55.73-22.51 60.51zm0 .28z"></path><path class="cls-3" d="M485.4 1334.48l-2.82-82.77c-30.86 15.29-45.17 37.09-51.41 50.49H341.9v32.28h95.65l4.12-14.31 10.74-36.36v50.67z"></path><path class="cls-4" d="M804.14 920h255.66a62.14 62.14 0 0062.13-62.14V332.4a62.14 62.14 0 00-62.13-62.14H856.91a62.14 62.14 0 00-62.14 62.14v475.49l-52.77 50A62.14 62.14 0 00804.14 920z"></path><path class="cls-3" d="M1059.8 921.52H804.14a63.73 63.73 0 01-63.66-63.66v-.65l52.77-50V332.4a63.73 63.73 0 0163.66-63.66h202.89a63.73 63.73 0 0163.66 63.66v525.46a63.73 63.73 0 01-63.66 63.66zm-316.27-63a60.67 60.67 0 0060.61 60h255.66a60.68 60.68 0 0060.61-60.61V332.4a60.68 60.68 0 00-60.61-60.61H856.91a60.68 60.68 0 00-60.61 60.61v476.14z"></path><path class="cls-3" d="M1056.06 2.25c14.52-4.82 50.66 5 70.41 18.52 12 8.19 24.46 119.92-1.25 194.21-18.47 53.39-76.38 77.19-76.38 77.19s-192.69-57.33-168.74-61.39c61.41-10.4 78-115.8 78-115.8s64.36-101.57 97.96-112.73z"></path><path class="cls-2" d="M1087 159.44s-27.25 88.4-25.08 94c7.43 19.18 20.4 37.86 27.74 42.08s-48.25 110.28-48.25 110.28L920.2 319.5l23-61.9s19.09-8.07 31-15.28 40.5-96.9 40.5-96.9z"></path><path class="cls-3" d="M1041.92 408.05l-1.42-1-122.14-87 23.64-63.6.6-.26c.19-.07 19.14-8.11 30.83-15.17 9.38-5.66 31.93-71.27 39.83-96.06l.41-1.3 75.24 14.61-.5 1.62c-10.33 33.53-26.28 88.43-25.09 93 7.55 19.48 20.32 37.4 27.06 41.26 1.85 1.07 3.09 3.56-3.79 20.9-3.71 9.35-9.42 22.07-17 37.8-12.84 26.76-26.76 53.35-26.9 53.62zM922 318.94l118.81 84.6c3.07-5.89 14.36-27.71 25.13-50.07 22.74-47.19 23.26-55.33 22.75-56.72-8.24-4.88-21.13-24.37-28.25-42.76-2.17-5.61 19-75.42 24.54-93.38l-69.25-13.44c-4.42 13.77-29.12 89.44-40.75 96.46-10.68 6.45-27.24 13.67-30.6 15.11z"></path><path class="cls-2" d="M1082 173.74c12.34-4.19 34.49-13.41 38.62-27s-12-16.16-17.35-15.25c-3.57.61 17.86-67.33 17.86-67.33L1016.19 30.3s-31.4 55-37.62 94c-6.26 39.14 8.62 53.63 36 62.2 13.59 4.24 25.17 4.12 34.87 2z"></path><path class="cls-3" d="M1036.17 191.42a73.74 73.74 0 01-22-3.5c-15.73-4.91-25.43-11.16-31.47-20.25-6.83-10.29-8.67-24.57-5.63-43.64 6.2-38.82 37.49-93.93 37.81-94.48l.61-1.07L1123 63.14l-.45 1.44c-7 22.28-17.69 58.14-18.19 65.22 4.24-.24 11.75 1 15.74 5.49 1.88 2.14 3.74 5.93 1.95 11.85-4.29 14.16-26.65 23.65-39.59 28a1.52 1.52 0 01-1-2.88c12.39-4.21 33.75-13.19 37.65-26 1.11-3.68.67-6.69-1.32-8.95-3.63-4.12-11.23-4.88-14.32-4.36a1.73 1.73 0 01-1.62-.58c-.84-1-2-2.28 7.86-36 3.94-13.49 8.1-26.89 9.46-31.22l-102.31-33c-4.39 7.87-31.2 57.09-36.84 92.37-6.26 39.19 9.47 52.53 35 60.51 11.75 3.68 23.22 4.34 34.09 2a1.52 1.52 0 11.64 3 63.85 63.85 0 01-13.58 1.39z"></path><path class="cls-3" d="M1005.83 104.28a3 3 0 01-1-.16 3 3 0 01-1.91-3.86l1.17-3.42a3 3 0 115.76 2l-1.16 3.41a3 3 0 01-2.86 2.03zM1056.48 117.15a3 3 0 01-1.16-.23 3 3 0 01-1.66-4l1.37-3.34a3 3 0 015.64 2.31l-1.37 3.34a3.05 3.05 0 01-2.82 1.92z"></path><path class="cls-2" d="M1057.28 91.48s7.5 11.25 18.75 12.73z"></path><path class="cls-3" d="M1076 105.73h-.2c-11.8-1.56-19.5-12.92-19.82-13.4a1.52 1.52 0 012.53-1.69c.08.11 7.27 10.7 17.69 12.07a1.52 1.52 0 01-.2 3zM1018.74 129.82c-1.89 0-6.76-4.24-7.93-6.59a3 3 0 01.32-3.61c6.22-6.27 7.7-8.85 9.4-11.84a60.47 60.47 0 013.28-5.23 1.52 1.52 0 112.49 1.75 53.66 53.66 0 00-3.12 5c-1.8 3.15-3.36 5.88-9.75 12.34.29 1.22 3.86 4.36 5.32 5.09a1.1 1.1 0 01.31 0 1.51 1.51 0 011.18 1.79 1.65 1.65 0 01-1.36 1.26zM1021.75 85c-10.64 0-17.3-2.1-17.61-2.2a1.52 1.52 0 01.93-2.9c.08 0 8.07 2.52 20.27 2a1.49 1.49 0 011.59 1.45 1.51 1.51 0 01-1.45 1.59c-1.29-.02-2.48.06-3.73.06z"></path><path class="cls-3" d="M1012.69 31.34s90.09 56 96.33 107.91c0 0 6.76-1.07 11 .45 5.46 2 6.92 4.37 6.92 4.37l10.41-77.16z"></path><path class="cls-3" d="M1087.16 5.15S981.68-42.79 923.68 153.8c-14.48 49.08-77.63 54-77.63 54s78.36 62.33 116.8-63.86c13.15-43.13 6.29-26.66 20.23-49.57 30.16-49.55 104.08-89.22 104.08-89.22zM1097 7.73s119.64 20 55.94 202.44c-14.47 41.48-91.59 102.09-177.4 70.55 0 0 90.77-50.22 105.86-86.17 8.52-20.28 23.64-87.62 23.64-87.62zM1098.38 369.24a1.52 1.52 0 00-1.75 1.25c-.43 2.61-42.63 263.1-28.27 435.88h-77.19a1.52 1.52 0 100 3h101.54a1.52 1.52 0 100-3h-21.3v-.13c-14.36-172.4 27.8-432.65 28.23-435.26a1.52 1.52 0 00-1.26-1.74z"></path><path class="cls-3" d="M501.85 995.79l36.33-116.67C560 808.91 802.42 632.36 802.42 632.36l9.38-60.08 188.49 8.43-16.7 37.34s66.25 82.65 44.69 166.28c-14.89 57.77-245.52 157.75-245.52 157.75-1.35 25.69 11.35 65 11.35 65z"></path><path class="cls-2" d="M976 59.38c-14.3 9.59-56.57 46.18-56.57 46.18l-35.87-19.71s69-39.63 71.94-44.89c5.48-9.9 21.59-26.17 25.9-28.49 16.89-9.09 51.42-8.68 53.75.61.8 3.16-35.5.26-37.8 6.17-6.5 16.75-11.2 33.29-21.35 40.13z"></path><path class="cls-3" d="M919.57 107.4l-39.11-21.53 2.35-1.34c26.42-15.18 69.19-40.62 71.36-44.31 5.7-10.29 22-26.65 26.51-29.09C995 3.4 1020.35 2.53 1031 7.24c3.16 1.39 5 3.23 5.61 5.47a1.94 1.94 0 01-.33 1.63c-1.12 1.5-4.52 1.75-14.73 2.15-7.09.27-21.85.85-22.8 3.32-1 2.67-2 5.35-3 8-5.13 13.81-10 26.84-19 32.85-14.06 9.43-56 45.7-56.42 46.07zm-32.9-21.58l32.52 17.89c6.06-5.24 42.62-36.68 55.92-45.6 8.14-5.46 12.83-18 17.78-31.38 1-2.65 2-5.34 3-8 1.56-4 11.12-4.7 25.52-5.26 4.42-.17 9.77-.37 11.85-.84a8.17 8.17 0 00-3.5-2.58c-9.85-4.34-34.28-3.43-47.68 3.79-4.07 2.19-20 18.41-25.29 27.89-2.79 5.03-54.6 35.15-70.12 44.09z"></path><path class="cls-2" d="M968.89 44.87l25.22-27.75 12.53-5.2 5.76 2.7s-16.68 12-22.37 22.77A42.12 42.12 0 01976.27 53l-3.14-1.9z"></path><path class="cls-2" d="M973.88 44.33l24.57-30.13-.83 1.67s34.54-18.74-3.22 20.36c-8.66 9-17.61 14.5-15.86 15.18l-.42-.85z"></path><path class="cls-3" d="M985.7 49.22a1.47 1.47 0 01-1-.35 1.51 1.51 0 01-.2-2.14 101.93 101.93 0 007-9.91c2.4-3.7 4.47-6.9 7-9.07 3.15-2.73 12.74-11 12.32-13.3 0-.22-.46-.5-1.11-.73-2.13-.77-11.39 1.9-17.51 6.93A38.78 38.78 0 00982.15 34a1.52 1.52 0 11-2.81-1.17 41.39 41.39 0 0111-14.56c6.1-5 16.62-8.84 20.48-7.45 1.78.64 2.82 1.67 3.07 3.05.57 3-2.67 7-13.32 16.15-2.19 1.89-4.15 4.92-6.43 8.43a101.57 101.57 0 01-7.25 10.19 1.49 1.49 0 01-1.19.58z"></path><path class="cls-1" d="M1092.25 283.29c23.72-3.85 5.92 124.45-6.29 193.84-23.36 132.65-129.06 78.13-129.06 78.13L1007 408l-36.31 185.86-160.75-17.37 40.84-229.6s-54-68.3-92.87-126.56C735.12 186.16 883.05 65.39 883.05 65.39l50.8 41.7s-74.28 77-87.8 94.14c0 0 46.07 44.09 102.7 45.51 17.51.43-28.59 62.59 19 76.25 23.48 6.73 79.61-32.43 124.5-39.7z"></path><path class="cls-3" d="M1549.39 1336H-46.49a1.52 1.52 0 01-1.52-1.52 1.52 1.52 0 011.52-1.53h1595.88a1.53 1.53 0 110 3z"></path><path class="cls-2" d="M731.22 534.46l-49.72-5.28-16.15 4.21-2.35 6s26.56-1.57 42.26 3.21 27.61 3.26 27.61 3.26l.85-3.61z"></path><path class="cls-2" d="M739.48 550.7c22.07-1.9 116.65 10.89 116.65 10.89l-8-51.09s-103.17 17.56-111 15.31c-14.65-4.21-34.07-6.77-51.39-7.45-22.91-.89-44.29 4.59-43.94 10.82.19 3.36 31 .68 38.94 3.86 22.36 8.96 43.01 19.01 58.74 17.66z"></path><path class="cls-3" d="M858 563.37l-2-.27c-.95-.13-94.67-12.75-116.32-10.89-13.58 1.16-30.68-5.92-48.79-13.42-3.48-1.44-7-2.91-10.6-4.34s-12.93-1.6-21.17-1.74c-13.78-.23-18.56-.46-18.72-3.44a5.1 5.1 0 011.71-3.92c5.42-5.52 24.67-9.25 43.81-8.51 18.58.73 37.93 3.53 51.75 7.51 5.47 1.57 69-8.32 110.3-15.35l1.52-.26zM745.06 549c26.68 0 96.15 9.08 109.25 10.83l-7.42-47.55c-15.9 2.69-102.52 17.21-110.13 15-13.6-3.92-32.68-6.68-51-7.39-20.25-.8-37.32 3.33-41.53 7.6a3.13 3.13 0 00-.77 1.17c2 .78 9.85.91 15.67 1 8.92.15 18.14.3 22.25 2 3.6 1.44 7.15 2.91 10.64 4.36 17.76 7.35 34.53 14.3 47.36 13.2 1.54-.22 3.46-.22 5.68-.22z"></path><path class="cls-2" d="M726.3 537.35l-51.5-7.6 2.37.78s-48.89 8.1 23.11 14c16.51 1.36 29.86-.2 29 1.51l-.47-1z"></path><path class="cls-3" d="M719.32 549.42h-.21c-6.12-.87-11.58-2.14-16.4-3.26-5.55-1.29-10.35-2.4-14.26-2.45-19.26-.24-25.67-1.24-27.46-4.29a3.92 3.92 0 01.19-4c2-3.68 14.92-7.65 25.12-7.72a73 73 0 0123.7 4.14 1.52 1.52 0 01-1.09 2.84 71.58 71.58 0 00-22.59-4c-10.32.07-21.4 4.15-22.47 6.13-.15.28-.39.78-.25 1 1.47 2.5 17.87 2.7 24.87 2.78 4.25.06 9.19 1.2 14.92 2.54 4.76 1.1 10.15 2.36 16.13 3.2a1.52 1.52 0 01-.21 3z"></path><path class="cls-1" d="M987.88 469.42l-166.09 31.49 15.66 57.83s116.8 6.37 142.91 2.85c48.6-6.57 64.06-42.77 64.06-42.77z"></path><path class="cls-5" d="M1438.85 605.06H23.26a21.81 21.81 0 01-21.74-21.74 21.8 21.8 0 0121.74-21.73h1415.59a21.8 21.8 0 0121.74 21.73 21.81 21.81 0 01-21.74 21.74z"></path><path class="cls-3" d="M1448.41 606.58H13.7A13.72 13.72 0 010 592.87v-19.1a13.72 13.72 0 0113.7-13.71h1434.71a13.72 13.72 0 0113.7 13.71v19.1a13.72 13.72 0 01-13.7 13.71zM13.7 563.11A10.68 10.68 0 003 573.77v19.1a10.68 10.68 0 0010.7 10.66h1434.71a10.68 10.68 0 0010.66-10.66v-19.1a10.68 10.68 0 00-10.66-10.66z"></path><path class="cls-5" d="M119.89 1333.8H76.41l112.28-728.75h43.48L119.89 1333.8z"></path><path class="cls-3" d="M121.2 1335.32H74.63l.27-1.75 112.48-730h46.56l-.27 1.76zm-43-3h40.4l111.81-725.7H190z"></path><path class="cls-5" d="M1327.63 1333.8h43.48l-112.28-728.75h-43.48l112.28 728.75z"></path><path class="cls-3" d="M1372.88 1335.32h-46.56l-.2-1.29-112.55-730.5h46.56l.21 1.29zm-44-3h40.4l-111.81-725.7h-40.39z"></path><path class="cls-5" d="M263.83 351.49l47.04 190.46h274.74l-55.62-190.46H263.83z"></path><path class="cls-3" d="M587.64 543.48h-278l-.29-1.16L261.88 350h269.25l.32 1.09zm-275.58-3.05h271.52L528.84 353H265.77z"></path><path class="cls-4" d="M311.12 541.95h356.83v18H311.12z"></path><path class="cls-3" d="M669.47 561.48H309.59v-21.05h359.88zm-356.83-3.05h353.79v-14.95H312.64zM426.36 482.39c-12.16 0-22.76-11.41-24-26.3a31.56 31.56 0 015-20.43c3.94-5.78 9.57-9.27 15.85-9.8s12.41 1.93 17.28 7a32.82 32.82 0 013.41 39.7c-3.94 5.78-9.57 9.27-15.85 9.81-.59 0-1.14.02-1.69.02zm-1.5-53.56c-.48 0-.95 0-1.42.06-5.35.46-10.18 3.47-13.59 8.49a28.48 28.48 0 00-4.5 18.45c1.2 13.89 11.24 24.41 22.41 23.46 5.35-.46 10.17-3.47 13.59-8.49a28.4 28.4 0 004.49-18.45 28.45 28.45 0 00-7.57-17.41 18.69 18.69 0 00-13.41-6.11z"></path><path class="cls-2" d="M334.05 522.37a1.52 1.52 0 01-1.48-1.17L296.63 374a1.52 1.52 0 112.95-.73l35.94 147.2a1.51 1.51 0 01-1.11 1.84 1.56 1.56 0 01-.36.06z"></path><path class="cls-3" d="M837.45 560.27a1.53 1.53 0 01-1.47-1.13L819 496.5l163.76-23.2 16.34-71.67a1.52 1.52 0 013 .68L985.29 476l-1 .14L822.86 499l16.06 59.32a1.52 1.52 0 01-1.07 1.86 1.44 1.44 0 01-.4.09zM955.18 1282.86H919.1V953a33.88 33.88 0 0026.29-33h-67.77a33.87 33.87 0 0026.3 33v329.86h-36.08a30.21 30.21 0 00-30.22 30.21v20.73h147.77v-20.73a30.21 30.21 0 00-30.21-30.21zM1171.14 469.74a1.53 1.53 0 01-1.08-2.6c8.59-8.52 11.06-11.41 10.9-21.14-.13-8.78-4.17-12.49-8.45-16.43-3.32-3.05-6.75-6.21-8.5-11.68-4.12-13 11.94-25.07 12.63-25.58a1.52 1.52 0 011.81 2.45c-.15.11-15 11.31-11.53 22.2 1.49 4.71 4.49 7.46 7.65 10.37 4.57 4.2 9.29 8.54 9.44 18.62.16 10.91-2.9 14.52-11.8 23.35a1.53 1.53 0 01-1.07.44zM1214.08 469.74a1.52 1.52 0 01-1.07-2.6c8.58-8.52 11-11.41 10.89-21.14-.13-8.78-4.17-12.49-8.45-16.43-3.32-3.05-6.75-6.21-8.49-11.68-4.13-13 11.93-25.07 12.62-25.58a1.52 1.52 0 111.81 2.45c-.15.11-15 11.31-11.53 22.2 1.49 4.71 4.49 7.46 7.65 10.37 4.57 4.2 9.29 8.54 9.44 18.63.17 10.9-2.9 14.51-11.8 23.34a1.53 1.53 0 01-1.07.44zM1191.12 461a1.52 1.52 0 01-1.07-2.6c8.58-8.52 11-11.41 10.9-21.14-.13-8.78-4.17-12.49-8.45-16.42-3.33-3.06-6.76-6.21-8.5-11.69-4.13-13 11.94-25.06 12.62-25.57a1.53 1.53 0 011.82 2.45c-.15.11-15 11.3-11.54 22.2 1.5 4.7 4.49 7.45 7.66 10.37 4.56 4.19 9.28 8.53 9.43 18.62.17 10.9-2.9 14.51-11.79 23.34a1.55 1.55 0 01-1.08.44z"></path><path class="cls-1" d="M1265.53 498.83a10 10 0 00-7.24-5.26c-4.19-.7-9 1-13.12 3.26v-14.41h-96.65v49a28.66 28.66 0 0028.66 28.65h39.32a28.65 28.65 0 0026.58-17.93c7.48-2.17 14-7.25 18.77-14.78 6.15-9.79 7.65-21.52 3.68-28.53zm-6.26 26.9a30.78 30.78 0 01-15 12.79 28.79 28.79 0 00.89-7.11v-31.09c4-2.35 8.74-4.4 12.62-3.74a7 7 0 015.09 3.75c3.4 5.99 1.89 16.67-3.6 25.4z"></path><path class="cls-2" d="M1180.74 546.17a1.51 1.51 0 01-.74-.19c-21.84-12.05-19.21-48.91-19.08-50.47a1.52 1.52 0 113 .24c0 .36-2.59 36.46 17.52 47.56a1.52 1.52 0 01-.73 2.86z"></path><path class="cls-3" d="M1015.88 150.65c-1.42 4.26-4.71 7-7.33 6.12s-3.6-5-2.18-9.3 4.71-7 7.33-6.12 3.6 5.04 2.18 9.3z"></path></svg> 