<?xml version="1.0" encoding="UTF-8"?> <svg xmlns="http://www.w3.org/2000/svg" xmlns:xlink="http://www.w3.org/1999/xlink" viewBox="0 0 800 443.48"><defs><linearGradient id="Áåçûìÿííûé_ãðàäèåíò_20" x1="369.01" y1="509.13" x2="369.01" y2="384.01" gradientTransform="rotate(-12.7 -949.47 806.6)" gradientUnits="userSpaceOnUse"><stop offset=".02" stop-color="#e3e3e3"></stop><stop offset="1" stop-color="#f1f1f1"></stop></linearGradient><linearGradient id="Áåçûìÿííûé_ãðàäèåíò_39" x1="454.68" y1="335.74" x2="447.78" y2="293.89" gradientUnits="userSpaceOnUse"><stop offset="0" stop-color="#474747"></stop><stop offset=".99" stop-color="#1e1e1e"></stop></linearGradient><linearGradient id="Áåçûìÿííûé_ãðàäèåíò_33" x1="335.29" y1="108.97" x2="335.29" y2="80.97" gradientTransform="rotate(-92.87 356.76 191.384)" gradientUnits="userSpaceOnUse"><stop offset="0" stop-color="#cdcdcd"></stop><stop offset="1" stop-color="#afafaf"></stop></linearGradient><linearGradient id="Áåçûìÿííûé_ãðàäèåíò_34" x1="364.38" y1="108.97" x2="364.38" y2="78.48" gradientTransform="rotate(-92.87 356.76 191.384)" gradientUnits="userSpaceOnUse"><stop offset="0" stop-color="#929292"></stop><stop offset="1" stop-color="#696969"></stop></linearGradient><linearGradient id="Áåçûìÿííûé_ãðàäèåíò_34-2" x1="93.82" y1="130.36" x2="93.82" y2="106.3" xlink:href="#Áåçûìÿííûé_ãðàäèåíò_34"></linearGradient><linearGradient id="Áåçûìÿííûé_ãðàäèåíò_33-2" x1="121.27" y1="224.71" x2="121.27" y2="185.92" xlink:href="#Áåçûìÿííûé_ãðàäèåíò_33"></linearGradient><linearGradient id="Áåçûìÿííûé_ãðàäèåíò_39-2" x1="421.97" y1="251.81" x2="436.99" y2="251.81" xlink:href="#Áåçûìÿííûé_ãðàäèåíò_39"></linearGradient><linearGradient id="Áåçûìÿííûé_ãðàäèåíò_34-3" x1="197.5" y1="321.19" x2="323.82" y2="321.19" xlink:href="#Áåçûìÿííûé_ãðàäèåíò_34"></linearGradient><linearGradient id="Áåçûìÿííûé_ãðàäèåíò_38" x1="200.13" y1="321.61" x2="319.92" y2="321.61" gradientUnits="userSpaceOnUse"><stop offset="0" stop-color="#ebebeb"></stop><stop offset=".31" stop-color="#e7e7e7"></stop><stop offset=".58" stop-color="#ddd"></stop><stop offset=".84" stop-color="#cbcbcb"></stop><stop offset=".98" stop-color="#bdbdbd"></stop></linearGradient><linearGradient id="Áåçûìÿííûé_ãðàäèåíò_37" x1="200.03" y1="326.39" x2="204.04" y2="326.39" gradientUnits="userSpaceOnUse"><stop offset="0" stop-color="#575757"></stop><stop offset="1" stop-color="#535353"></stop></linearGradient><linearGradient id="Áåçûìÿííûé_ãðàäèåíò_36" x1="219.3" y1="345.94" x2="219.3" y2="331.3" xlink:href="#Áåçûìÿííûé_ãðàäèåíò_41"></linearGradient><linearGradient id="Áåçûìÿííûé_ãðàäèåíò_33-3" x1="151.37" y1="265.44" x2="151.37" y2="223.05" gradientTransform="rotate(-6.53 292.722 246.73)" xlink:href="#Áåçûìÿííûé_ãðàäèåíò_33"></linearGradient><linearGradient id="Áåçûìÿííûé_ãðàäèåíò_35" x1="93.29" y1="252.3" x2="208.53" y2="252.3" gradientTransform="rotate(-6.53 292.722 246.73)" gradientUnits="userSpaceOnUse"><stop offset="0" stop-color="#ebebeb"></stop><stop offset=".46" stop-color="#e7e7e7"></stop><stop offset=".86" stop-color="#ddd"></stop><stop offset=".98" stop-color="#d8d8d8"></stop></linearGradient><linearGradient id="Áåçûìÿííûé_ãðàäèåíò_35-2" x1="95.98" y1="242.34" x2="206.14" y2="242.34" xlink:href="#Áåçûìÿííûé_ãðàäèåíò_35"></linearGradient><linearGradient id="Áåçûìÿííûé_ãðàäèåíò_6" x1="246.36" y1="309.93" x2="246.36" y2="275.58" gradientUnits="userSpaceOnUse"><stop offset=".01" stop-color="#858585"></stop><stop offset="1" stop-color="#909090"></stop></linearGradient><linearGradient id="Áåçûìÿííûé_ãðàäèåíò_35-3" x1="186.79" y1="292.58" x2="263.35" y2="292.58" xlink:href="#Áåçûìÿííûé_ãðàäèåíò_35"></linearGradient><linearGradient id="Áåçûìÿííûé_ãðàäèåíò_34-4" x1="206.73" y1="292.58" x2="206.73" y2="287.81" xlink:href="#Áåçûìÿííûé_ãðàäèåíò_34"></linearGradient><linearGradient id="Áåçûìÿííûé_ãðàäèåíò_33-4" x1="236.32" y1="298.17" x2="236.32" y2="296.24" xlink:href="#Áåçûìÿííûé_ãðàäèåíò_33"></linearGradient><linearGradient id="Áåçûìÿííûé_ãðàäèåíò_30" x1="476.93" y1="217.67" x2="556.4" y2="217.67" gradientTransform="rotate(7.9 505.001 317.126)" gradientUnits="userSpaceOnUse"><stop offset=".01" stop-color="#1c1c1c"></stop><stop offset="1" stop-color="#3a3a3a"></stop></linearGradient><linearGradient id="Áåçûìÿííûé_ãðàäèåíò_30-2" x1="474.99" y1="215.1" x2="558.25" y2="215.1" xlink:href="#Áåçûìÿííûé_ãðàäèåíò_30"></linearGradient><linearGradient id="Áåçûìÿííûé_ãðàäèåíò_31" x1="474.99" y1="212.54" x2="558.25" y2="212.54" gradientTransform="rotate(7.9 505.001 317.126)" gradientUnits="userSpaceOnUse"><stop offset="0" stop-color="#737373"></stop><stop offset=".99" stop-color="#434343"></stop></linearGradient><linearGradient id="Áåçûìÿííûé_ãðàäèåíò_30-3" x1="476.93" y1="112.62" x2="556.31" y2="112.62" xlink:href="#Áåçûìÿííûé_ãðàäèåíò_30"></linearGradient><linearGradient id="Áåçûìÿííûé_ãðàäèåíò_28" x1="515.54" y1="163.09" x2="515.54" y2="111.82" gradientTransform="rotate(7.9 505.001 317.126)" gradientUnits="userSpaceOnUse"><stop offset=".02" stop-color="#cacaca"></stop><stop offset="1" stop-color="#e6e6e6"></stop></linearGradient><linearGradient id="Áåçûìÿííûé_ãðàäèåíò_28-2" x1="487.38" y1="409.49" x2="487.38" y2="461.41" gradientTransform="rotate(-172.1 501.801 311.98)" xlink:href="#Áåçûìÿííûé_ãðàäèåíò_28"></linearGradient><linearGradient id="Áåçûìÿííûé_ãðàäèåíò_5" x1="541.7" y1="163.4" x2="541.7" y2="149.12" gradientUnits="userSpaceOnUse"><stop offset="0" stop-color="#a3a3a3"></stop><stop offset="1" stop-color="#bfbfbf"></stop></linearGradient><linearGradient id="Áåçûìÿííûé_ãðàäèåíò_26" x1="520.32" y1="150.71" x2="563.09" y2="150.71" gradientUnits="userSpaceOnUse"><stop offset="0" stop-color="#bfbfbf"></stop><stop offset="1" stop-color="#cdcdcd"></stop></linearGradient><linearGradient id="Áåçûìÿííûé_ãðàäèåíò_5-2" x1="531.17" y1="217.51" x2="531.17" y2="188.57" xlink:href="#Áåçûìÿííûé_ãðàäèåíò_5"></linearGradient><linearGradient id="Áåçûìÿííûé_ãðàäèåíò_26-2" x1="504.03" y1="195.43" x2="558.3" y2="195.43" xlink:href="#Áåçûìÿííûé_ãðàäèåíò_26"></linearGradient><linearGradient id="Áåçûìÿííûé_ãðàäèåíò_25" x1="535.3" y1="197.4" x2="535.3" y2="183.69" gradientUnits="userSpaceOnUse"><stop offset="0" stop-color="#bfbfbf"></stop><stop offset="1" stop-color="#b2b2b2"></stop></linearGradient><linearGradient id="Áåçûìÿííûé_ãðàäèåíò_25-2" x1="537.01" y1="184.13" x2="537.01" y2="162.65" xlink:href="#Áåçûìÿííûé_ãðàäèåíò_25"></linearGradient><linearGradient id="Áåçûìÿííûé_ãðàäèåíò_24" x1="517.65" y1="216.16" x2="517.65" y2="167.19" gradientUnits="userSpaceOnUse"><stop offset="0"></stop><stop offset="1" stop-color="#cacaca"></stop></linearGradient><linearGradient id="Áåçûìÿííûé_ãðàäèåíò_24-2" x1="523.84" y1="164.67" x2="523.84" y2="112.13" xlink:href="#Áåçûìÿííûé_ãðàäèåíò_24"></linearGradient><linearGradient id="Áåçûìÿííûé_ãðàäèåíò_22" x1="538" y1="143.21" x2="578.47" y2="143.21" gradientUnits="userSpaceOnUse"><stop offset="0" stop-color="#cacaca"></stop><stop offset="1"></stop></linearGradient><linearGradient id="Áåçûìÿííûé_ãðàäèåíò_21" x1="560.81" y1="219.18" x2="560.81" y2="196.46" gradientUnits="userSpaceOnUse"><stop offset="0" stop-color="#7e7e7e"></stop><stop offset="1"></stop></linearGradient><linearGradient id="Áåçûìÿííûé_ãðàäèåíò_20-2" x1="566.37" y1="361.77" x2="566.37" y2="296.61" gradientTransform="rotate(8.1 1059.06 339.853)" xlink:href="#Áåçûìÿííûé_ãðàäèåíò_20"></linearGradient><linearGradient id="Áåçûìÿííûé_ãðàäèåíò_19" x1="470.72" y1="164.91" x2="470.72" y2="68.89" gradientTransform="rotate(53.61 424.601 303.138)" gradientUnits="userSpaceOnUse"><stop offset="0" stop-color="#626262"></stop><stop offset="1" stop-color="#969696"></stop></linearGradient><linearGradient id="Áåçûìÿííûé_ãðàäèåíò_18" x1="472.2" y1="178.88" x2="472.7" y2="175.6" gradientTransform="rotate(53.61 424.601 303.138)" gradientUnits="userSpaceOnUse"><stop offset=".01" stop-color="#1e1e1e"></stop><stop offset="1" stop-color="#404040"></stop></linearGradient><linearGradient id="Áåçûìÿííûé_ãðàäèåíò_12" x1="469.25" y1="178.92" x2="469.25" y2="68.92" gradientTransform="rotate(53.61 424.601 303.138)" gradientUnits="userSpaceOnUse"><stop offset="0"></stop><stop offset="1" stop-color="#7c7c7c"></stop></linearGradient><linearGradient id="Áåçûìÿííûé_ãðàäèåíò_9" x1="641.87" y1="198.34" x2="646.95" y2="198.34" gradientUnits="userSpaceOnUse"><stop offset="0" stop-color="#878787"></stop><stop offset="1" stop-color="#7c7c7c"></stop></linearGradient><linearGradient id="Áåçûìÿííûé_ãðàäèåíò_6-2" x1="657.08" y1="306.93" x2="657.08" y2="254.42" xlink:href="#Áåçûìÿííûé_ãðàäèåíò_6"></linearGradient><linearGradient id="Áåçûìÿííûé_ãðàäèåíò_5-3" x1="720.81" y1="361.77" x2="720.81" y2="321.66" xlink:href="#Áåçûìÿííûé_ãðàäèåíò_5"></linearGradient><linearGradient id="Áåçûìÿííûé_ãðàäèåíò_5-4" x1="679.63" y1="323.72" x2="679.63" y2="277.09" xlink:href="#Áåçûìÿííûé_ãðàäèåíò_5"></linearGradient><radialGradient id="Áåçûìÿííûé_ãðàäèåíò_43" cx="555.52" cy="320.73" r="20.18" gradientUnits="userSpaceOnUse"><stop offset="0" stop-color="#2d2d2d"></stop><stop offset=".99" stop-color="#101010"></stop></radialGradient><radialGradient id="Áåçûìÿííûé_ãðàäèåíò_41" cx="540.81" cy="325.01" r="7.38" gradientUnits="userSpaceOnUse"><stop offset="0" stop-color="#b2b2b2"></stop><stop offset=".99" stop-color="#8b8b8b"></stop></radialGradient><radialGradient id="Áåçûìÿííûé_ãðàäèåíò_40" cx="413.59" cy="340.99" r="8.84" gradientTransform="matrix(12.53 0 0 6.69 -4594.75 -1943.53)" gradientUnits="userSpaceOnUse"><stop offset="0" stop-color="#969696"></stop><stop offset=".13" stop-color="#8c8c8c"></stop><stop offset=".35" stop-color="#707070"></stop><stop offset=".64" stop-color="#424242"></stop><stop offset=".98" stop-color="#030303"></stop><stop offset="1"></stop></radialGradient><radialGradient id="Áåçûìÿííûé_ãðàäèåíò_32" cx="516.62" cy="108.48" r="29.6" gradientTransform="rotate(7.9 505.001 317.126)" gradientUnits="userSpaceOnUse"><stop offset="0" stop-color="#616161"></stop><stop offset=".99" stop-color="#434343"></stop></radialGradient><radialGradient id="Áåçûìÿííûé_ãðàäèåíò_32-2" cx="516.62" cy="110.51" r="29.49" xlink:href="#Áåçûìÿííûé_ãðàäèåíò_32"></radialGradient><radialGradient id="Áåçûìÿííûé_ãðàäèåíò_14" cx="470.64" cy="70.61" r="3.81" gradientTransform="rotate(53.61 424.601 303.138)" gradientUnits="userSpaceOnUse"><stop offset="0" stop-color="#dedede"></stop><stop offset=".98" stop-color="#b7b7b7"></stop></radialGradient><radialGradient id="Áåçûìÿííûé_ãðàäèåíò_8" cx="619.59" cy="294.65" r="33.19" gradientUnits="userSpaceOnUse"><stop offset=".01" stop-color="#858585"></stop><stop offset="1" stop-color="#616161"></stop></radialGradient><radialGradient id="Áåçûìÿííûé_ãðàäèåíò_8-2" cx="656.89" cy="282.17" r="50.69" xlink:href="#Áåçûìÿííûé_ãðàäèåíò_8"></radialGradient><style>.cls-26{opacity:.2}.cls-12,.cls-14,.cls-19,.cls-21,.cls-26,.cls-30,.cls-34,.cls-35,.cls-38,.cls-55,.cls-7{fill-rule:evenodd}.cls-4{fill:#838383}.cls-5{fill:#b0b0b0}.cls-7{fill:#4e4e4e}.cls-12,.cls-21,.cls-35,.cls-7{opacity:.5}.cls-14,.cls-21,.cls-26,.cls-34,.cls-35,.cls-7{mix-blend-mode:multiply}.cls-12{fill:#fafafa}.cls-12,.cls-38{mix-blend-mode:soft-light}.cls-14{fill:#525252}.cls-14,.cls-34{opacity:.3}.cls-19{fill:#fff}.cls-21,.cls-26,.cls-34{fill:#383838}.cls-30{fill:#535353}.cls-35{fill:#4f4f4f}.cls-38{fill:#acacac}.cls-55{fill:#ddd}</style></defs><g style="isolation:isolate"><g opacity=".2" id="online_testing" data-name="online testing"><path d="M320.54 165.54l-55.92-66-5.69 5 2.28 4.25a2.5 2.5 0 11-3.74 3.33 2.45 2.45 0 01-.63-1.52 2.4 2.4 0 01.34-1.42l-2.1-1.25-8.29 7.31 3.12 3.59a2.51 2.51 0 11-3.74 3.34 2.44 2.44 0 01-.62-1.53 2.36 2.36 0 01.28-1.32l-1.91-1.55-8.65 7.62 1.44 2.66a1.89 1.89 0 01.47 0 2.5 2.5 0 11-2.94 2.61 2.57 2.57 0 01.22-1.19l-2-1.65-8.79 7.75 1.72 2.49a2.42 2.42 0 01.47 0 2.49 2.49 0 011.23 4.32 2.51 2.51 0 01-4.17-1.72 2.16 2.16 0 010-.44l-2.83-1.55-7.64 6.74 1.47 2.65a2.67 2.67 0 01.63 0 2.54 2.54 0 011.43.8 2.5 2.5 0 11-3.74 3.33 2.42 2.42 0 01-.63-1.52 2.19 2.19 0 010-.67l-2.6-1.64-8.33 7.34 1.23 2.51a2.43 2.43 0 011.28-.11 2.6 2.6 0 011.45.8 2.51 2.51 0 01-3.76 3.34 2.58 2.58 0 01-.62-1.53 2.37 2.37 0 01.33-1.39l-2.22-1.59-5.21 4.59 59 63.85a8.73 8.73 0 0012.1.47l47.4-42.13 7.83-7a8.75 8.75 0 001.05-11.97z" fill="url(#Áåçûìÿííûé_ãðàäèåíò_20)" fill-rule="evenodd"></path><path class="cls-4" transform="rotate(-41.63 245.266 150.368)" d="M200.41 150.1h89.65v.52h-89.65z"></path><path class="cls-5" transform="rotate(-41.63 250.533 157.699)" d="M205.68 157.44h89.65v.52h-89.65z"></path><path class="cls-5" transform="rotate(-41.63 257.2 163.8)" d="M212.35 163.53H302v.52h-89.65z"></path><path class="cls-5" transform="rotate(-41.63 263.169 170.51)" d="M218.32 170.25h89.65v.52h-89.65z"></path><path class="cls-5" transform="rotate(-41.63 269.151 177.225)" d="M224.29 176.97h89.65v.52h-89.65z"></path><path class="cls-5" transform="rotate(-40.9 275.062 184.707)" d="M230.77 184.45h88.63v.52h-88.63z"></path><path class="cls-5" transform="rotate(-42.11 280.446 190.73)" d="M236.12 190.47h88.62v.52h-88.62z"></path><path class="cls-5" transform="rotate(-41.89 287.45 196.77)" d="M244.32 196.51h86.2v.52h-86.2z"></path><path class="cls-4" transform="rotate(-40.64 280.866 148.564)" d="M280.59 101.1h.52v94.92h-.52z"></path><path d="M494.42 322.7a7.13 7.13 0 01-5-2.51c-1.23-1.26-2.62-3-4.24-5-6.52-8.21-16.36-20.58-31.53-20.58h-.25c-30.72.27-38.59 22.74-38.67 23l-.1.31h-.34a71.17 71.17 0 00-12.25.87l-4.83.78c-10.55 1.7-10.55 1.7-16.28 1.36-2.52-.14-6.34-.37-12.8-.53v-.89c6.48.16 10.3.39 12.83.53 5.63.33 5.63.33 16.09-1.35l4.83-.78a74.57 74.57 0 0112.1-.89c1.09-2.77 10-23 39.39-23.26h.26c15.6 0 25.6 12.57 32.23 20.91 1.6 2 3 3.75 4.18 5 2.79 2.84 5.61 2.95 8.37.32 2.54-2.41 4.56-6.49 6-10.68a20.33 20.33 0 01-3-7.08c-.56-3.13.21-5.67 2.29-7.53 1.58-1.42 2.5-.89 2.9-.45 1.5 1.63.86 8.36-1.25 14.88 3.19 4.9 8 9.34 11.15 10.59 8 3.19 19.71 1.77 19.83 1.75l.11.89c-.49.06-12 1.46-20.27-1.82-3.18-1.27-7.9-5.5-11.18-10.33-1.45 4.16-3.49 8.11-5.93 10.43a6.79 6.79 0 01-4.64 2.06zm11.11-28.12a2.16 2.16 0 00-1.25.69 6.86 6.86 0 00-2 6.71 18.91 18.91 0 002.48 6.1c1.85-6.06 2.36-12.05 1.19-13.32a.54.54 0 00-.42-.18z" fill="url(#Áåçûìÿííûé_ãðàäèåíò_39)"></path><path class="cls-7" d="M529 325.45l2.18 2.61 18.12 4.51a64.51 64.51 0 0032.7-2.94z"></path><path d="M529 325.45s4.53-12 20.61-14.92 28.88 11.94 32.42 19.1c0 0-11.59 3.24-32.42.71 0 0-11.46-5.39-17.78-3.17z" fill="url(#Áåçûìÿííûé_ãðàäèåíò_43)" fill-rule="evenodd"></path><path d="M531.83 327.17s10.18-8.66 14.63-7.36 3.15 10.53 3.15 10.53-9.04-3.34-17.78-3.17z" fill="url(#Áåçûìÿííûé_ãðàäèåíò_41)" fill-rule="evenodd"></path><path d="M544 312a14.79 14.79 0 013.58.12 16.94 16.94 0 013.5.88 19 19 0 013.26 1.54 20.46 20.46 0 012.92 2.14l-.09-.05a31.53 31.53 0 005.9.65 21 21 0 005.87-.64l-.09.32a23 23 0 00-2.43-2.06 28 28 0 00-2.68-1.75c-.93-.52-1.88-1-2.86-1.47a32 32 0 00-3-1.18 30.33 30.33 0 016 2.42 24.63 24.63 0 015.27 3.77l.23.23-.32.09a21.64 21.64 0 01-6 .71 30.9 30.9 0 01-6-.7h-.05a21.62 21.62 0 00-2.84-2.12 17.78 17.78 0 00-3.17-1.6 18.55 18.55 0 00-3.42-1 14.19 14.19 0 00-3.58-.3z" fill="#4e4e4e" opacity=".5"></path><path class="cls-12" d="M540.59 317s3.55-3 6.1-3.73c0 0 6.33 1.18 9.13 5.58a13.94 13.94 0 012.11 8.84h-7.08s.56-12.05-10.26-10.69zM416.93 148.12l100.99 100.8 5.43-101.18-106.42.38zM278.9 227.86l41.55 42.75-40.45.14-1.1-42.89z"></path><path d="M253.42 235.67s2.4-4.08 22.69-6.75l-1.48-29.51s-18.69.64-27.74 5.82z" fill="url(#Áåçûìÿííûé_ãðàäèåíò_33)" fill-rule="evenodd"></path><path class="cls-14" d="M272.5 229.44l-1.27-29.86 3.4-.17 1.48 29.51-3.61.52z"></path><path d="M274.4 194.75s-18.75.81-30.43 1.92l-.72-14.28s17.74-1.26 30.44-1.61z" fill="url(#Áåçûìÿííûé_ãðàäèåíò_34)" fill-rule="evenodd"></path><path class="cls-14" d="M271.03 194.91l3.36-.16-.7-13.97-3.27.05.61 14.08z"></path><path d="M80.71 118.33s9.54 2.49 18.57 12l7.66-8.22s-4.6-10.46-18.41-15.84z" fill="url(#Áåçûìÿííûé_ãðàäèåíò_34-2)" fill-rule="evenodd"></path><path d="M101.78 209s8.19-16.47 25-23.12l14 21.7A45.41 45.41 0 00121 224.71z" fill="url(#Áåçûìÿííûé_ãðàäèåíò_33-2)" fill-rule="evenodd"></path><ellipse cx="587" cy="339.31" rx="110.8" ry="59.21" style="mix-blend-mode:screen" opacity=".4" fill="url(#Áåçûìÿííûé_ãðàäèåíò_40)"></ellipse><path class="cls-19" d="M425.69 258.51l-3.1-13.82 13.09 6.91-7.08 1.24-2.91 5.67z"></path><path d="M425.53 259.75L422 243.87l15 7.93-8.11 1.43zm-2.32-14.25l2.64 11.76 2.46-4.8 6.07-1.07z" fill="url(#Áåçûìÿííûé_ãðàäèåíò_39-2)"></path><path class="cls-21" d="M323.55 324.67l-12.64 4.11-.84 7.17-17.28 2.14-64.52.53s-2.64 6.72-1.8 11.41H207s.78-7.65 3.61-11.41l-10.15-1.2z"></path><path d="M200.45 337.42s-4.61-8.52-2.31-23.4l91.53-5.94 34.15-3.08v1.71l-3.9.5-.25 15.18h3.88v2.31l-35.37 10.17z" fill="url(#Áåçûìÿííûé_ãðàäèåíò_34-3)" fill-rule="evenodd"></path><path d="M319.92 307.18l-30.25 4-88.23 5.63s-3.71 7.57 1.36 19.2l85.07-4 31.8-9.71z" fill="url(#Áåçûìÿííûé_ãðàäèåíò_38)" fill-rule="evenodd"></path><path d="M202.8 336h1.2s-4.58-6.92-1.24-19.29h-2.1A31.27 31.27 0 00202.8 336z" fill="url(#Áåçûìÿííûé_ãðàäèåíò_37)" fill-rule="evenodd"></path><path d="M202.8 316.75l.81-.05s-2.61 6.91.39 19.3c0 0-5-7-1.2-19.25z" fill="#898989" fill-rule="evenodd"></path><path class="cls-26" d="M204.04 320.27l82.14-6.39 32.9-5.33-33.01 5.82-82.03 5.9zM209.23 333.85l76.44-4.24 33.14-8.18-33.26 7.87-76.32 4.55z"></path><path class="cls-26" d="M205.52 332.95l79.95-4.77 34.2-7.26-34.27 6.72-79.88 5.31z"></path><path class="cls-21" d="M287.97 332.95l35.58-10.59v2.31l-35.37 10.17-.21-1.89zM323.83 305v1.72l-3.91.5-.24 15.17-31.82 9.7h-1.73c-2.59-11.63-.06-17.69-.06-17.69l-83.72 4-1.65-1.59 89-5.54v-3.13z"></path><path fill="#b1b1b1" fill-rule="evenodd" d="M198.14 314.02l51.07-4.9 74.61-4.15-34.15 3.11-91.53 5.94z"></path><path d="M217.85 332.21s-12.33 4.08-12.33 13.73l19.39-.84s.34-7.86 8.17-13.8z" fill="url(#Áåçûìÿííûé_ãðàäèåíò_36)" fill-rule="evenodd"></path><path class="cls-21" d="M233.08 331.3v3.32l-2.48.12v1.46l-2.33.09a15.65 15.65 0 014.81-4.99z"></path><path d="M97.36 287.92l72.22-11.65 43.2-4.72-.29-2.6-43.38 3.92-71.26 12.71s-3-5.57-1.91-11.06L161 240.83l49.21 2.39-.42-2.45-48.56-2.83-67.33 35s-1.36 6.73 3.46 14.98z" fill="url(#Áåçûìÿííûé_ãðàäèåíò_33-3)" fill-rule="evenodd"></path><path class="cls-30" d="M210.21 243.22l-48.2 23.61-66.07 7.69 66.02-34.19 48.25 2.89z"></path><path d="M95.94 274.52a17.56 17.56 0 002 11.81l70.64-13.41 41.95-3.79a36.16 36.16 0 01-4.52-15.1l-45.31 1.69z" fill="url(#Áåçûìÿííûé_ãðàäèåíò_35)" fill-rule="evenodd"></path><path d="M100.31 285.89S97 278.33 97.83 274l-1.89.55s-1.16 7 2 11.81z" fill="#6d6d6d" fill-rule="evenodd"></path><path class="cls-21" d="M160.74 255.72s.81 12.65 4.28 17.52l45.55-4.11a41.86 41.86 0 01-4.52-15.1z"></path><path fill="url(#Áåçûìÿííûé_ãðàäèåíò_35-2)" fill-rule="evenodd" d="M97.83 273.97l63.18-25.96 45.02 2.52-5.1 3.69-40.19 1.5-62.91 18.25z"></path><path class="cls-21" d="M206.03 250.53l-45.02-2.52.12 1-58.82 23.66 58.43-16.95 40.19-1.5 5.1-3.69z"></path><path class="cls-34" d="M206.03 250.53l-44.9-1.52-58.82 23.66 58.43-16.95 40.19-1.5 5.1-3.69z"></path><path class="cls-35" d="M168.62 272.92l.95 3.35 43.21-4.72-.29-2.6-43.87 3.97zM161.23 237.94l.73 2.39 48.25 2.89-.42-2.45-48.56-2.83z"></path><path class="cls-26" d="M100.19 278.06l61.86-12.93-.1-.83-61.76 13.76zM163.34 269.82l-12.59 2.45 12.97-1.48-.38-.97z"></path><path class="cls-30" d="M97.36 287.92l115.42-16.37-43.21 4.72-72.21 11.65z"></path><path d="M182.76 309.93l78.38-6.13 47.07-3.32s5-10.92 0-22.63l-45.34-2.27-80.56 5.17.28 3 4.2-.13s4.35 11 .42 22.66l-4.82.65z" fill="url(#Áåçûìÿííûé_ãðàäèåíò_6)" fill-rule="evenodd"></path><path d="M186.79 283.59l74.35-4.69s3.45 6.38 1.73 21.58l-75.66 5.77a43.06 43.06 0 00-.42-22.66z" fill="url(#Áåçûìÿííûé_ãðàäèåíò_35-3)" fill-rule="evenodd"></path><path class="cls-21" d="M262.87 275.58s4.19 9 2.26 27.83l43.08-2.93s5.12-11.65 0-22.63zM186.79 283.59l.66 2.09s56.25-5.2 75.19-1.72c0 0-.71-3.86-1.5-5.06z"></path><path class="cls-26" d="M188.07 289.19l60.68-3.51-60.41 4.01-.27-.5zM188.01 303.41l12.03-.72-12.19 1.38.16-.66z"></path><path class="cls-38" d="M274.76 276.09a48.15 48.15 0 011 26.61l9.14-.58s2.1-14.37-1.9-25.53zM300.68 277.47s4.15 7.6 1.59 23.4l4.4-.28a38.47 38.47 0 00-.83-22.86z"></path><path class="cls-21" d="M216.6 287.81s-4.29 4.35-5 7.71l-9.42.34s1.81-5.05 5.59-7.46z"></path><path d="M207.75 288.4a44.15 44.15 0 00-10.88 4.18l14.07-.93a16.62 16.62 0 015.66-3.84z" fill="url(#Áåçûìÿííûé_ãðàäèåíò_34-4)" fill-rule="evenodd"></path><path class="cls-26" d="M229.47 296.82l33.84-2.12-.06 1.16-33.78.96z"></path><path class="cls-21" d="M242.58 296.24l-2.25 2.29-7.58.4.81-2.32 9.02-.37z"></path><path fill="url(#Áåçûìÿííûé_ãðàäèåíò_33-4)" fill-rule="evenodd" d="M233.56 296.61l-3.49 1.56 9.65-.39 2.86-1.54-9.02.37z"></path><path d="M569.62 225.4c-.31 2.22-18.41 2.71-40.12-.3s-38.94-8.15-38.63-10.37 18.28-2.48 40 .54 39.06 7.91 38.75 10.13z" fill="url(#Áåçûìÿííûé_ãðàäèåíò_30)" fill-rule="evenodd"></path><path fill="url(#Áåçûìÿííûé_ãðàäèåíò_30-2)" fill-rule="evenodd" d="M489.65 209.38l1.22 5.35 78.62 10.91 2.63-4.82-82.47-11.44z"></path><path d="M586.49 117.22c-.3 2.22-20.2 2.21-41.91-.8S503.72 108 504 105.78s20.05-1.16 41.77 1.85c22.65 3.14 41.03 7.37 40.72 9.59z" fill="url(#Áåçûìÿííûé_ãðàäèåíò_32)" fill-rule="evenodd"></path><path fill="url(#Áåçûìÿííûé_ãðàäèåíò_32-2)" fill-rule="evenodd" d="M504.02 105.78l1.22 5.35 78.63 10.91 2.62-4.82-82.47-11.44z"></path><path d="M572.12 220.82c-.31 2.22-19 1.45-41.79-1.71s-41-7.51-40.68-9.73 19-1.45 41.79 1.71 40.99 7.51 40.68 9.73z" fill="url(#Áåçûìÿííûé_ãðàäèåíò_31)" fill-rule="evenodd"></path><path d="M505.24 111.13s31.81 7.27 78.63 10.91c0-.04-21.58-7.92-78.63-10.91z" fill="url(#Áåçûìÿííûé_ãðàäèåíò_30-3)" fill-rule="evenodd"></path><path d="M578.47 121.37c-25.64-5.19-43.6-8-70-9.71 0 0-8.88 31.94 26.74 54.12l1.39.19 1.39.2c40.32-11.65 40.48-44.8 40.48-44.8z" fill="url(#Áåçûìÿííûé_ãðàäèåíò_28)" opacity=".72" fill-rule="evenodd"></path><path d="M494.75 210.58a314.09 314.09 0 0070 9.71s8.88-31.94-26.74-54.12l-1.39-.2-1.39-.19c-40.32 11.65-40.48 44.8-40.48 44.8z" fill="url(#Áåçûìÿííûé_ãðàäèåíò_28-2)" opacity=".72" fill-rule="evenodd"></path><path d="M520.32 149.21s7.57 12 16.34 14c8.52 2 26.43-14.11 26.43-14.11s-24.56 8.9-42.77.11z" fill="url(#Áåçûìÿííûé_ãðàäèåíò_5)" fill-rule="evenodd"></path><path d="M520.32 149.21s8.81-3.82 16.69.43c.19 3.81 26.08-.52 26.08-.52s-12 6.2-25.89 4.33-16.88-4.24-16.88-4.24z" fill="url(#Áåçûìÿííûé_ãðàäèåíò_26)" fill-rule="evenodd"></path><path d="M504 192.35a29.34 29.34 0 00-5.18 16.08s16.54 4.23 32 6.67a236.59 236.59 0 0032.2 2.41s2.47-16.88-4.79-28.94c0 0-3.5 8.21-9.66 11.5s-5.34.82-22.6-1.85-21.97-5.87-21.97-5.87z" fill="url(#Áåçûìÿííûé_ãðàäèåíò_5-2)" fill-rule="evenodd"></path><path d="M558.3 188.57s-7 4.93-18.7 6.16-15.41-2.88-23.21-3.08a61.18 61.18 0 00-12.36.7s5.68 4.23 19.85 6.69 22 5 28.15 1.55 6.27-12.02 6.27-12.02z" fill="url(#Áåçûìÿííûé_ãðàäèåíò_26-2)" fill-rule="evenodd"></path><path d="M520.32 195.43s20.84 4.44 30 0c0 0-9.86-10.15-12.94-11.59s-16.38 7.97-17.06 11.59z" fill="url(#Áåçûìÿííûé_ãðàäèåíò_25)" fill-rule="evenodd"></path><path d="M535.63 162.65a62.9 62.9 0 010 21.15l2.21.33s-1.71-13.65.55-21.08z" fill="url(#Áåçûìÿííûé_ãðàäèåíò_25-2)" fill-rule="evenodd"></path><path class="cls-55" d="M537 149.64s-6.29 2.63-16.69-.43c.01 0 8.77-3.67 16.69.43zM539.31 151l-6 1.9s3 1.28 12.94.77a40.28 40.28 0 0016.81-4.52S552.54 151 546.59 151z"></path><path class="cls-12" d="M508.48 111.31v-6.65a113.8 113.8 0 0112.93.35l-.5 7.12s-7.62-.53-12.43-.82zM576.26 119.9l2.21-6.2s4.48 1.31 5.4 1.69l-2.93 5.74zM494.75 217.29l-1.31-5.62 6.94 2v5.52a50 50 0 01-5.63-1.9zM559.9 227.18l1.37-5.14a34.92 34.92 0 008.36-.21l-3 4.82s-4.25.5-6.73.53z"></path><path d="M496.91 211.11s1.64-17.14 12.41-28.84 26-15.08 26-15.08l3.09.87s-12.75 18.5-16.94 48.1c-.02 0-20.76-3.35-24.56-5.05z" style="mix-blend-mode:screen" fill="url(#Áåçûìÿííûé_ãðàäèåíò_24)" fill-rule="evenodd"></path><path d="M536 164.67s-15.75-9.23-21-25.76-2.48-26.78-2.48-26.78l11.74 1.78s-4.83 23.89 11.74 50.76z" style="mix-blend-mode:screen" fill="url(#Áåçûìÿííûé_ãðàäèåíò_24-2)" fill-rule="evenodd"></path><path d="M578.47 121.37S577.34 155 538 166.17c0 0 34.12-10.43 34.86-45.92z" style="mix-blend-mode:screen" fill="url(#Áåçûìÿííûé_ãðàäèåíò_22)" fill-rule="evenodd"></path><path d="M557 219.18s4.38-15.19 4.67-22.72a45.34 45.34 0 012.43 22.72z" style="mix-blend-mode:screen" fill="url(#Áåçûìÿííûé_ãðàäèåíò_21)" fill-rule="evenodd"></path><path class="cls-19" d="M512.3 180.73s7.3-2.18 9.29-7.35c0 0-5.1.51-9.29 7.35zM512.3 123.69s-2.65 5.31 2.64 9.64c0 0 2.06-7.61-2.64-9.64zM564.63 147.7s2.59-4.78 5.42-6.09c0 0-1.92 4.67-5.42 6.09z"></path><path d="M646.33 258.8l-72.66-28.63-5.73 1.15 2.95 2.09c1.12.56 1.18 1.2.12 1.45a6.73 6.73 0 01-4-.57 1.65 1.65 0 01-.84-.74c-.08-.21 0-.4.25-.55l-2.44-.84-8.52 1.94 3.74 2.08c1.1.6 1.12 1.3 0 1.59a6.24 6.24 0 01-3.94-.58 1.55 1.55 0 01-.8-.8.5.5 0 01.22-.57l-2.22-1-9 2.31 1.72 1.52a4.34 4.34 0 01.52.09 5.3 5.3 0 011.64.59c1.07.63 1.06 1.4 0 1.71a5.71 5.71 0 01-3.94-.58 1.54 1.54 0 01-.77-.86.57.57 0 01.18-.56l-2.27-1.12-9.37 2.64 2 1.58.52.08a4.92 4.92 0 011.61.63c1.06.67 1 1.49-.11 1.84a5.24 5.24 0 01-3.93-.59 1.56 1.56 0 01-.75-.91.65.65 0 010-.24l-3.16-1.25-8.35 2.55 1.65 1.72a5.22 5.22 0 01.69.11 4.53 4.53 0 011.6.66c1 .71.94 1.59-.21 2a4.9 4.9 0 01-3.92-.6 1.43 1.43 0 01-.7-1 .61.61 0 01.05-.38c-.85-.39-1.94-.89-2.87-1.34l-9.22 3.06 1.32 1.7a4.94 4.94 0 011.42.12 4.51 4.51 0 011.59.69c1 .75.87 1.7-.3 2.11a4.63 4.63 0 01-3.92-.61 1.52 1.52 0 01-.66-1 .93.93 0 01.39-.81l-2.42-1.3-9.07 2.3 70.24 42.51c3.93 1.89 10.55 1.6 15-.59l57.61-26.09 9.13-3.68c4.05-1.6 4-3.83-.07-5.03z" fill="url(#Áåçûìÿííûé_ãðàäèåíò_20-2)" fill-rule="evenodd"></path><path class="cls-4" d="M519.15 263.84l-.38-.27 73.93-24.5.43.18-73.98 24.59z"></path><path class="cls-5" d="M524.99 268.84l-.38-.26 74.92-26.14.44.18-74.98 26.22zM532.56 273.03l-.39-.26 75.75-27.5.45.17-75.81 27.59zM539.39 277.43l-.39-.25 76.65-29.01.45.17-76.71 29.09zM546.3 281.69l-.4-.24 77.57-30.5.45.15-77.62 30.59zM553.28 285.83l-.39-.24 78.61-31.38.45.15-78.67 31.47zM560.36 289.83l-.42-.23 77.86-33.4.46.15-77.9 33.48zM569.78 292.58l-.42-.22 76.78-33.66.47.13-76.83 33.75z"></path><path class="cls-4" d="M638.09 266.51l-78.46-34.15.4-.09 78.52 34.06-.46.18z"></path><path class="cls-7" d="M552.99 267.97l43.81 17.86 11.19-5.07-39.36-11.92-14.02-1.71-1.62.84z"></path><path fill="url(#Áåçûìÿííûé_ãðàäèåíò_19)" fill-rule="evenodd" d="M562.22 256.87l75.22-59.73 6.08 8.19-77.2 57.11-4.1-5.57z"></path><path fill="#bcbcbc" fill-rule="evenodd" d="M562.22 256.87l-9.23 11.1 1.1.31 12.23-5.84 1.07-1.47-1.85.07.69-2.41-2.98-.37.92-1.94-1.95.55z"></path><path fill="url(#Áåçûìÿííûé_ãðàäèåíò_18)" fill-rule="evenodd" d="M555.29 265.2l.93 2.06-2.13 1.02-1.1-.31 2.3-2.77z"></path><path fill="url(#Áåçûìÿííûé_ãðàäèåíò_14)" fill-rule="evenodd" d="M635.29 198.85l1.17 2.69 2.98 4.04 1.85 1.41 2.23-1.66-6.08-8.19-2.15 1.71z"></path><path d="M637.44 197.14l.85 2.44 3.12 4.24 2.11 1.51 3.43-3.54s-.31-3-5.08-6.89z" fill="#7e7e7e" fill-rule="evenodd"></path><path style="mix-blend-mode:multiply" fill="#696969" opacity=".5" fill-rule="evenodd" d="M641.41 203.82l-75.87 57.22 1.85-.07-1.07 1.47 77.2-57.11-2.11-1.51z"></path><path style="mix-blend-mode:screen" fill="url(#Áåçûìÿííûé_ãðàäèåíò_12)" fill-rule="evenodd" d="M562.22 256.87l-9.23 11.1.61.17 10.12-10.22 74.56-58.34-.84-2.44-75.22 59.73z"></path><path d="M641.87 194.9s1.16 5.16 5.08 6.89a10 10 0 00-5.08-6.89z" style="mix-blend-mode:screen" fill="url(#Áåçûìÿííûé_ãðàäèåíò_9)" fill-rule="evenodd"></path><path d="M682.63 297.12l-6.44 32.3a80.83 80.83 0 01-14.51.95c-15.28-.22-39.52-4.15-57.13-24.11l9.69-22.73 2.25-5.27z" fill="url(#Áåçûìÿííûé_ãðàäèåíò_8)" fill-rule="evenodd"></path><path class="cls-21" d="M682.63 297.12l-6.44 32.3a80.83 80.83 0 01-14.51.95c-13.06-23.4-47.44-46.84-47.44-46.84l2.25-5.27z"></path><path fill="url(#Áåçûìÿííûé_ãðàäèåíò_8-2)" fill-rule="evenodd" d="M591.17 254.42l-.38 1.95 43.01 40.58 87.86 12.97 1.33-2.99-131.82-52.51z"></path><path fill="url(#Áåçûìÿííûé_ãðàäèåíò_6-2)" fill-rule="evenodd" d="M591.17 254.42l79.3 14.34 52.52 38.17-86.69-13.42-45.13-39.09z"></path><path class="cls-34" d="M633.8 296.95l2.5-3.44 86.69 13.42-1.33 2.99-87.86-12.97z"></path><path d="M739.68 346.68c-1.26 4.63-3.76 5.5-3.76 5.5-7.58-3.62-14.68-9.65-18.94-13.66l-.14-.13-.21-.2-.56-.53.88.87c.2.21.41.41.63.62l.21.21c10.93 10.7 16.51 14.32 16.51 14.32l-2 1.25c-9.4-7.23-20-19.57-20.71-20.45a1.59 1.59 0 00.12.16 111.71 111.71 0 008.19 10l.48.53 1.55 1.67.33.35.42.42c4.53 4.74 8.09 7.87 8.09 7.87-10.25 7.25-17.83 6.16-17.83 6.16-7-12.33-5.67-27.29-5.67-27.29-3.49-2-4.88-4.07-5.25-5.91a6.77 6.77 0 011.61-5.47c3.45 1.13 3.71-1.39 3.71-1.39 4.07 1.89 5.54 4.23 6 6.2a.65.65 0 010 .1v.27a6.48 6.48 0 01-.45 3.53v.05l.66.59c10.71 9.5 26.13 14.36 26.13 14.36z" fill="url(#Áåçûìÿííûé_ãðàäèåíò_5-3)" fill-rule="evenodd"></path><path class="cls-21" d="M651.77 278.26l44.86 25.57v2.41l4.71.69.6-3.84-50.17-24.83z"></path><path d="M651.77 278.26l2.91-1.17 49.71 25.51s-.4 15 3 19.06c0 0 1.11 3.49-3.72 1.39 0 0 .54-.27-3.29-18.58z" fill="url(#Áåçûìÿííûé_ãðàäèåíò_5-4)" fill-rule="evenodd"></path><path class="cls-7" d="M716.63 338.19l-.28-.3.49.5.14.13.6.63c-.22-.21-.43-.41-.63-.62z"></path><path d="M709.36 335.29a74.6 74.6 0 003.64 26.43c-7-12.33-5.67-27.29-5.67-27.29-3.49-2-4.88-4.07-5.25-5.91 0 0 1.75 4.37 6.31 3.83a5.33 5.33 0 005-4.49.65.65 0 010 .1 7.46 7.46 0 01-.41 3.8v.05l.66.59h-1a16.86 16.86 0 003.68 5.42l-4.55-4.66-.94.45.75.82v.05a1.59 1.59 0 00.12.16c.81 1.07 4.52 5.91 8.19 10l.48.53q.66.75 1.32 1.44L710.1 334.7z" style="mix-blend-mode:multiply" opacity=".3" fill="#4e4e4e" fill-rule="evenodd"></path><path class="cls-21" d="M604.55 306.26s24.68 27.49 71.64 23.16c0 0-42.66 8.4-71.64-23.16z"></path><path class="cls-7" d="M739.46 359.13l-.47-.48.14.13z"></path></g></g></svg> 